<svg width="174" height="182" viewBox="0 0 174 182" fill="none" xmlns="http://www.w3.org/2000/svg">
<path d="M52.625 57.6319C49.0851 57.0918 45.7227 56.0146 42.7368 54.4639C39.7509 52.9132 37.2021 50.9206 35.2411 48.6038C33.2801 46.2871 31.9467 43.6932 31.3198 40.9757C30.6929 38.2582 30.7852 35.4721 31.5912 32.7823C32.3973 30.0925 33.9007 27.5536 36.0126 25.3157C38.1245 23.0778 40.802 21.1863 43.8867 19.7531C46.9715 18.32 50.4008 17.3742 53.972 16.9718C57.5432 16.5694 61.1836 16.7184 64.6781 17.4102C67.2031 14.9598 70.4228 12.9796 74.0947 11.619C77.7665 10.2584 81.7945 9.55283 85.875 9.55555C90.073 9.55275 94.2138 10.2994 97.9676 11.7361C101.721 13.1727 104.985 15.2597 107.497 17.8307C110.998 16.9228 114.705 16.5741 118.39 16.8064C122.074 17.0387 125.657 17.8469 128.916 19.181C132.175 20.515 135.041 22.3465 137.337 24.562C139.632 26.7774 141.308 29.3296 142.26 32.0603C143.212 34.791 143.42 37.6422 142.872 40.437C142.324 43.2319 141.031 45.9109 139.073 48.3081C137.115 50.7053 134.534 52.7696 131.49 54.373C128.445 55.9764 125.003 57.0848 121.375 57.6295V95.5555C121.375 96.8227 120.717 98.0379 119.544 98.9339C118.372 99.8299 116.783 100.333 115.125 100.333H58.875C57.2174 100.333 55.6277 99.8299 54.4556 98.9339C53.2835 98.0379 52.625 96.8227 52.625 95.5555V57.6319Z" stroke="black" stroke-width="4" stroke-linecap="round" stroke-linejoin="round"/>
<path d="M52.625 74.0555H121.375" stroke="black" stroke-width="4" stroke-linecap="round" stroke-linejoin="round"/>
<path d="M74.5 59.7222V74.0556" stroke="black" stroke-width="4" stroke-linecap="round" stroke-linejoin="round"/>
<path d="M121.375 66.8889V81.2222" stroke="black" stroke-width="4" stroke-linecap="round" stroke-linejoin="round"/>
<path d="M52.625 66.8889V81.2222" stroke="black" stroke-width="4" stroke-linecap="round" stroke-linejoin="round"/>
<path d="M65 35.4511C65 34.8175 64.6708 34.2099 64.0847 33.7619C63.4987 33.3139 62.7038 33.0622 61.875 33.0622C61.0462 33.0622 60.2513 33.3139 59.6653 33.7619C59.0792 34.2099 58.75 34.8175 58.75 35.4511V49.7844C58.7493 52.538 59.9931 55.2072 62.2709 57.3402C64.5488 59.4733 67.7207 60.9393 71.25 61.49V97.5622C71.25 98.1958 71.5792 98.8034 72.1653 99.2514C72.7513 99.6994 73.5462 99.9511 74.375 99.9511C75.2038 99.9511 75.9987 99.6994 76.5847 99.2514C77.1708 98.8034 77.5 98.1958 77.5 97.5622V61.49C81.0293 60.9393 84.2012 59.4733 86.4791 57.3402C88.7569 55.2072 90.0007 52.538 90 49.7844V35.4511C90 34.8175 89.6708 34.2099 89.0847 33.7619C88.4987 33.3139 87.7038 33.0622 86.875 33.0622C86.0462 33.0622 85.2513 33.3139 84.6653 33.7619C84.0792 34.2099 83.75 34.8175 83.75 35.4511V49.7844C83.751 51.2671 83.1505 52.7135 82.0311 53.9243C80.9117 55.1351 79.3286 56.0507 77.5 56.545V35.4511C77.5 34.8175 77.1708 34.2099 76.5847 33.7619C75.9987 33.3139 75.2038 33.0622 74.375 33.0622C73.5462 33.0622 72.7513 33.3139 72.1653 33.7619C71.5792 34.2099 71.25 34.8175 71.25 35.4511V56.545C69.4214 56.0507 67.8383 55.1351 66.7189 53.9243C65.5995 52.7135 64.999 51.2671 65 49.7844V35.4511ZM108.75 97.5622V66.5066H99.375C98.5462 66.5066 97.7513 66.255 97.1653 65.8069C96.5792 65.3589 96.25 64.7513 96.25 64.1177V45.0066C96.25 41.839 98.2875 38.8768 101.069 36.7459C103.856 34.6198 107.731 33.0622 111.875 33.0622C112.704 33.0622 113.499 33.3139 114.085 33.7619C114.671 34.2099 115 34.8175 115 35.4511V97.5622C115 98.1958 114.671 98.8034 114.085 99.2514C113.499 99.6994 112.704 99.9511 111.875 99.9511C111.046 99.9511 110.251 99.6994 109.665 99.2514C109.079 98.8034 108.75 98.1958 108.75 97.5622Z" fill="#8C8C8C"/>
<path d="M61 35.4511C61 34.8175 60.6708 34.2099 60.0847 33.7619C59.4987 33.3139 58.7038 33.0622 57.875 33.0622C57.0462 33.0622 56.2513 33.3139 55.6653 33.7619C55.0792 34.2099 54.75 34.8175 54.75 35.4511V49.7844C54.7493 52.538 55.9931 55.2072 58.2709 57.3402C60.5488 59.4733 63.7207 60.9393 67.25 61.49V97.5622C67.25 98.1958 67.5792 98.8034 68.1653 99.2514C68.7513 99.6994 69.5462 99.9511 70.375 99.9511C71.2038 99.9511 71.9987 99.6994 72.5847 99.2514C73.1708 98.8034 73.5 98.1958 73.5 97.5622V61.49C77.0293 60.9393 80.2012 59.4733 82.4791 57.3402C84.7569 55.2072 86.0007 52.538 86 49.7844V35.4511C86 34.8175 85.6708 34.2099 85.0847 33.7619C84.4987 33.3139 83.7038 33.0622 82.875 33.0622C82.0462 33.0622 81.2513 33.3139 80.6653 33.7619C80.0792 34.2099 79.75 34.8175 79.75 35.4511V49.7844C79.751 51.2671 79.1505 52.7135 78.0311 53.9243C76.9117 55.1351 75.3286 56.0507 73.5 56.545V35.4511C73.5 34.8175 73.1708 34.2099 72.5847 33.7619C71.9987 33.3139 71.2038 33.0622 70.375 33.0622C69.5462 33.0622 68.7513 33.3139 68.1653 33.7619C67.5792 34.2099 67.25 34.8175 67.25 35.4511V56.545C65.4214 56.0507 63.8383 55.1351 62.7189 53.9243C61.5995 52.7135 60.999 51.2671 61 49.7844V35.4511ZM104.75 97.5622V66.5066H95.375C94.5462 66.5066 93.7513 66.255 93.1653 65.8069C92.5792 65.3589 92.25 64.7513 92.25 64.1177V45.0066C92.25 41.839 94.2875 38.8768 97.0687 36.7459C99.8562 34.6198 103.731 33.0622 107.875 33.0622C108.704 33.0622 109.499 33.3139 110.085 33.7619C110.671 34.2099 111 34.8175 111 35.4511V97.5622C111 98.1958 110.671 98.8034 110.085 99.2514C109.499 99.6994 108.704 99.9511 107.875 99.9511C107.046 99.9511 106.251 99.6994 105.665 99.2514C105.079 98.8034 104.75 98.1958 104.75 97.5622Z" fill="#FF0000"/>
<path d="M59.4062 152.137C59.2773 155.055 58.457 157.264 56.9453 158.764C55.4336 160.264 53.3008 161.014 50.5469 161.014C47.6523 161.014 45.4316 160.065 43.8848 158.166C42.3496 156.256 41.582 153.537 41.582 150.01V145.703C41.582 142.188 42.3789 139.481 43.9727 137.582C45.5664 135.672 47.7812 134.717 50.6172 134.717C53.4062 134.717 55.5215 135.496 56.9629 137.055C58.416 138.613 59.2422 140.852 59.4414 143.77H54.2559C54.209 141.965 53.9277 140.723 53.4121 140.043C52.9082 139.352 51.9766 139.006 50.6172 139.006C49.2344 139.006 48.2559 139.492 47.6816 140.465C47.1074 141.426 46.8027 143.014 46.7676 145.229V150.063C46.7676 152.606 47.0488 154.352 47.6113 155.301C48.1855 156.25 49.1641 156.725 50.5469 156.725C51.9062 156.725 52.8438 156.397 53.3594 155.74C53.875 155.072 54.168 153.871 54.2383 152.137H59.4062ZM61.7617 150.537C61.7617 147.654 62.4414 145.393 63.8008 143.752C65.1602 142.111 67.041 141.291 69.4434 141.291C71.8691 141.291 73.7617 142.111 75.1211 143.752C76.4805 145.393 77.1602 147.666 77.1602 150.572V151.785C77.1602 154.68 76.4863 156.942 75.1387 158.57C73.791 160.199 71.9043 161.014 69.4785 161.014C67.041 161.014 65.1426 160.199 63.7832 158.57C62.4355 156.93 61.7617 154.656 61.7617 151.75V150.537ZM66.7539 151.785C66.7539 155.184 67.6621 156.883 69.4785 156.883C71.1543 156.883 72.0566 155.465 72.1855 152.629L72.2031 150.537C72.2031 148.803 71.9629 147.52 71.4824 146.688C71.002 145.844 70.3223 145.422 69.4434 145.422C68.5996 145.422 67.9375 145.844 67.457 146.688C66.9883 147.52 66.7539 148.803 66.7539 150.537V151.785ZM84.9473 141.643L85.0879 143.401C86.2012 141.994 87.6719 141.291 89.5 141.291C91.3984 141.291 92.7402 142.147 93.5254 143.858C94.6152 142.147 96.168 141.291 98.1836 141.291C101.512 141.291 103.217 143.594 103.299 148.199V160.662H98.3242V148.516C98.3242 147.414 98.1719 146.629 97.8672 146.16C97.5625 145.692 97.0469 145.457 96.3203 145.457C95.3945 145.457 94.7031 146.026 94.2461 147.162L94.2812 147.76V160.662H89.3066V148.551C89.3066 147.461 89.1602 146.676 88.8672 146.195C88.5742 145.703 88.0527 145.457 87.3027 145.457C86.4473 145.457 85.7676 145.92 85.2637 146.846V160.662H80.2891V141.643H84.9473ZM114.672 161.014C112.117 161.014 110.125 160.252 108.695 158.729C107.266 157.205 106.551 155.026 106.551 152.19V150.678C106.551 147.678 107.207 145.363 108.52 143.734C109.832 142.106 111.713 141.291 114.162 141.291C116.553 141.291 118.352 142.059 119.559 143.594C120.766 145.117 121.381 147.379 121.404 150.379V152.822H111.508C111.578 154.229 111.889 155.26 112.439 155.916C112.99 156.561 113.84 156.883 114.988 156.883C116.652 156.883 118.041 156.315 119.154 155.178L121.105 158.184C120.496 159.027 119.611 159.713 118.451 160.24C117.291 160.756 116.031 161.014 114.672 161.014ZM111.543 149.342H116.518V148.885C116.494 147.748 116.307 146.887 115.955 146.301C115.604 145.715 114.994 145.422 114.127 145.422C113.26 145.422 112.627 145.733 112.229 146.354C111.842 146.975 111.613 147.971 111.543 149.342ZM129.438 160.662H124.445V133.662H129.438V160.662Z" fill="#BD00FF"/>
<path d="M10.3809 176.135L11.7285 167.199H14.5703L12.041 181.418H9.16016L7.5 173.039L5.85938 181.418H2.96875L0.429688 167.199H3.29102L4.62891 176.125L6.29883 167.199H8.71094L10.3809 176.135ZM26.1328 175.588C26.1328 177.495 25.6803 178.976 24.7754 180.031C23.877 181.086 22.627 181.613 21.0254 181.613C19.4303 181.613 18.1771 181.092 17.2656 180.051C16.3542 179.002 15.8919 177.538 15.8789 175.656V173.224C15.8789 171.271 16.3314 169.748 17.2363 168.654C18.1413 167.554 19.3978 167.004 21.0059 167.004C22.5879 167.004 23.8346 167.544 24.7461 168.625C25.6576 169.699 26.1198 171.209 26.1328 173.156V175.588ZM23.252 173.205C23.252 171.922 23.0697 170.969 22.7051 170.344C22.3405 169.719 21.7741 169.406 21.0059 169.406C20.2441 169.406 19.681 169.709 19.3164 170.314C18.9518 170.913 18.763 171.828 18.75 173.058V175.588C18.75 176.831 18.9355 177.749 19.3066 178.342C19.6777 178.928 20.2507 179.221 21.0254 179.221C21.7741 179.221 22.3307 178.934 22.6953 178.361C23.0599 177.782 23.2454 176.887 23.252 175.676V173.205ZM32.5 176.222H31.0742V181.418H28.2031V167.199H32.7832C34.222 167.199 35.332 167.573 36.1133 168.322C36.901 169.064 37.2949 170.122 37.2949 171.496C37.2949 173.384 36.6081 174.706 35.2344 175.461L37.7246 181.281V181.418H34.6387L32.5 176.222ZM31.0742 173.83H32.7051C33.278 173.83 33.7077 173.641 33.9941 173.263C34.2806 172.879 34.4238 172.368 34.4238 171.73C34.4238 170.305 33.8672 169.592 32.7539 169.592H31.0742V173.83ZM42.1387 179.035H47.1777V181.418H39.2676V167.199H42.1387V179.035ZM48.8379 181.418V167.199H52.5977C54.2578 167.199 55.5794 167.726 56.5625 168.781C57.5521 169.836 58.0566 171.281 58.0762 173.117V175.422C58.0762 177.29 57.5814 178.758 56.5918 179.826C55.6087 180.887 54.2513 181.418 52.5195 181.418H48.8379ZM51.709 169.592V179.035H52.5684C53.5254 179.035 54.1992 178.784 54.5898 178.283C54.9805 177.775 55.1855 176.903 55.2051 175.666V173.195C55.2051 171.867 55.0195 170.943 54.6484 170.422C54.2773 169.894 53.6458 169.618 52.7539 169.592H51.709ZM74.7656 175.588C74.7656 177.495 74.3132 178.976 73.4082 180.031C72.5098 181.086 71.2598 181.613 69.6582 181.613C68.0632 181.613 66.8099 181.092 65.8984 180.051C64.987 179.002 64.5247 177.538 64.5117 175.656V173.224C64.5117 171.271 64.9642 169.748 65.8691 168.654C66.7741 167.554 68.0306 167.004 69.6387 167.004C71.2207 167.004 72.4674 167.544 73.3789 168.625C74.2904 169.699 74.7526 171.209 74.7656 173.156V175.588ZM71.8848 173.205C71.8848 171.922 71.7025 170.969 71.3379 170.344C70.9733 169.719 70.4069 169.406 69.6387 169.406C68.877 169.406 68.3138 169.709 67.9492 170.314C67.5846 170.913 67.3958 171.828 67.3828 173.058V175.588C67.3828 176.831 67.5684 177.749 67.9395 178.342C68.3105 178.928 68.8835 179.221 69.6582 179.221C70.4069 179.221 70.9635 178.934 71.3281 178.361C71.6927 177.782 71.8783 176.887 71.8848 175.676V173.205ZM84.1602 175.617H79.6973V181.418H76.8262V167.199H84.6973V169.592H79.6973V173.234H84.1602V175.617ZM100.586 176.681C100.514 178.303 100.059 179.53 99.2188 180.363C98.3789 181.196 97.194 181.613 95.6641 181.613C94.056 181.613 92.8223 181.086 91.9629 180.031C91.11 178.97 90.6836 177.459 90.6836 175.5V173.107C90.6836 171.154 91.1263 169.65 92.0117 168.596C92.8971 167.534 94.1276 167.004 95.7031 167.004C97.2526 167.004 98.4277 167.437 99.2285 168.303C100.036 169.168 100.495 170.412 100.605 172.033H97.7246C97.6986 171.03 97.5423 170.34 97.2559 169.963C96.9759 169.579 96.4583 169.387 95.7031 169.387C94.9349 169.387 94.3913 169.657 94.0723 170.197C93.7533 170.731 93.584 171.613 93.5645 172.844V175.529C93.5645 176.942 93.7207 177.912 94.0332 178.439C94.3522 178.967 94.8958 179.23 95.6641 179.23C96.4193 179.23 96.9401 179.048 97.2266 178.683C97.513 178.312 97.6758 177.645 97.7148 176.681H100.586ZM111.602 167.199V177.043C111.589 178.521 111.182 179.653 110.381 180.441C109.58 181.222 108.431 181.613 106.934 181.613C105.41 181.613 104.245 181.216 103.438 180.422C102.637 179.627 102.236 178.478 102.236 176.974V167.199H105.127V176.984C105.127 177.791 105.257 178.368 105.518 178.713C105.778 179.058 106.25 179.23 106.934 179.23C107.617 179.23 108.086 179.061 108.34 178.722C108.594 178.377 108.724 177.814 108.73 177.033V167.199H111.602ZM116.65 179.035H121.689V181.418H113.779V167.199H116.65V179.035ZM126.348 181.418H123.477V167.199H126.348V181.418ZM138.701 181.418H135.83L131.631 172.092V181.418H128.76V167.199H131.631L135.84 176.535V167.199H138.701V181.418ZM147.969 178.508H144.053L143.291 181.418H140.254L144.697 167.199H147.324L151.797 181.418H148.73L147.969 178.508ZM144.678 176.115H147.334L146.006 171.047L144.678 176.115ZM157.441 176.222H156.016V181.418H153.145V167.199H157.725C159.163 167.199 160.273 167.573 161.055 168.322C161.842 169.064 162.236 170.122 162.236 171.496C162.236 173.384 161.549 174.706 160.176 175.461L162.666 181.281V181.418H159.58L157.441 176.222ZM156.016 173.83H157.646C158.219 173.83 158.649 173.641 158.936 173.263C159.222 172.879 159.365 172.368 159.365 171.73C159.365 170.305 158.809 169.592 157.695 169.592H156.016V173.83ZM168.027 173.586L170.166 167.199H173.291L169.482 176.262V181.418H166.572V176.262L162.754 167.199H165.879L168.027 173.586Z" fill="#FF0000"/>
<path d="M98.6045 115.695L91.166 114.868L87.8408 109.715C87.75 109.574 87.6006 109.46 87.416 109.39C86.9531 109.216 86.3906 109.361 86.1592 109.715L82.834 114.868L75.3955 115.695C75.1904 115.717 75.0029 115.791 74.8594 115.903C74.6858 116.039 74.5902 116.223 74.5935 116.413C74.5968 116.603 74.6987 116.785 74.877 116.917L80.2588 120.929L78.9873 126.592C78.9575 126.724 78.9766 126.86 79.0424 126.984C79.1082 127.107 79.2181 127.215 79.3596 127.293C79.5011 127.372 79.6686 127.419 79.8431 127.428C80.0175 127.438 80.192 127.41 80.3467 127.347L87 124.673L93.6533 127.347C93.835 127.421 94.0459 127.446 94.2481 127.419C94.7578 127.352 95.1006 126.982 95.0127 126.592L93.7412 120.929L99.1231 116.917C99.2696 116.808 99.3662 116.664 99.3955 116.508C99.4746 116.116 99.1172 115.753 98.6045 115.695V115.695Z" fill="#FF0000"/>
<path d="M71.6045 115.695L64.166 114.868L60.8408 109.715C60.75 109.574 60.6006 109.46 60.416 109.39C59.9531 109.216 59.3906 109.361 59.1592 109.715L55.834 114.868L48.3955 115.695C48.1904 115.717 48.0029 115.791 47.8594 115.903C47.6858 116.039 47.5902 116.223 47.5935 116.413C47.5968 116.603 47.6987 116.785 47.877 116.917L53.2588 120.929L51.9873 126.592C51.9575 126.724 51.9766 126.86 52.0424 126.984C52.1082 127.107 52.2181 127.215 52.3596 127.293C52.5011 127.372 52.6686 127.419 52.8431 127.428C53.0175 127.438 53.192 127.41 53.3467 127.347L60 124.673L66.6533 127.347C66.835 127.421 67.0459 127.446 67.2481 127.419C67.7578 127.352 68.1006 126.982 68.0127 126.592L66.7412 120.929L72.1231 116.917C72.2696 116.808 72.3662 116.664 72.3955 116.508C72.4746 116.116 72.1172 115.753 71.6045 115.695V115.695Z" fill="#FF0000"/>
<path d="M44.6045 115.695L37.166 114.868L33.8408 109.715C33.75 109.574 33.6006 109.46 33.416 109.39C32.9531 109.216 32.3906 109.361 32.1592 109.715L28.834 114.868L21.3955 115.695C21.1904 115.717 21.0029 115.791 20.8594 115.903C20.6858 116.039 20.5902 116.223 20.5935 116.413C20.5968 116.603 20.6987 116.785 20.877 116.917L26.2588 120.929L24.9873 126.592C24.9575 126.724 24.9766 126.86 25.0424 126.984C25.1082 127.107 25.2181 127.215 25.3596 127.293C25.5011 127.372 25.6686 127.419 25.8431 127.428C26.0175 127.438 26.192 127.41 26.3467 127.347L33 124.673L39.6533 127.347C39.835 127.421 40.0459 127.446 40.2481 127.419C40.7578 127.352 41.1006 126.982 41.0127 126.592L39.7412 120.929L45.1231 116.917C45.2696 116.808 45.3662 116.664 45.3955 116.508C45.4746 116.116 45.1172 115.753 44.6045 115.695V115.695Z" fill="#FF0000"/>
<path d="M125.605 115.695L118.166 114.868L114.841 109.715C114.75 109.574 114.601 109.46 114.416 109.39C113.953 109.216 113.391 109.361 113.159 109.715L109.834 114.868L102.396 115.695C102.19 115.717 102.003 115.791 101.859 115.903C101.686 116.039 101.59 116.223 101.593 116.413C101.597 116.603 101.699 116.785 101.877 116.917L107.259 120.929L105.987 126.592C105.957 126.724 105.977 126.86 106.042 126.984C106.108 127.107 106.218 127.215 106.36 127.293C106.501 127.372 106.669 127.419 106.843 127.428C107.018 127.438 107.192 127.41 107.347 127.347L114 124.673L120.653 127.347C120.835 127.421 121.046 127.446 121.248 127.419C121.758 127.352 122.101 126.982 122.013 126.592L120.741 120.929L126.123 116.917C126.27 116.808 126.366 116.664 126.396 116.508C126.475 116.116 126.117 115.753 125.605 115.695V115.695Z" fill="#FF0000"/>
<path d="M152.605 115.695L145.166 114.868L141.841 109.715C141.75 109.574 141.601 109.46 141.416 109.39C140.953 109.216 140.391 109.361 140.159 109.715L136.834 114.868L129.396 115.695C129.19 115.717 129.003 115.791 128.859 115.903C128.686 116.039 128.59 116.223 128.593 116.413C128.597 116.603 128.699 116.785 128.877 116.917L134.259 120.929L132.987 126.592C132.957 126.724 132.977 126.86 133.042 126.984C133.108 127.107 133.218 127.215 133.36 127.293C133.501 127.372 133.669 127.419 133.843 127.428C134.018 127.438 134.192 127.41 134.347 127.347L141 124.673L147.653 127.347C147.835 127.421 148.046 127.446 148.248 127.419C148.758 127.352 149.101 126.982 149.013 126.592L147.741 120.929L153.123 116.917C153.27 116.808 153.366 116.664 153.396 116.508C153.475 116.116 153.117 115.753 152.605 115.695V115.695Z" fill="#FF0000"/>
</svg>
